<svg width="76" height="21" viewBox="0 0 76 21" fill="none" xmlns="http://www.w3.org/2000/svg">
<path d="M5.76758 16.1934C8.625 16.1934 10.5156 13.9268 10.5156 10.4141C10.5156 6.91211 8.61426 4.63477 5.7998 4.63477C4.2207 4.63477 2.9209 5.41895 2.22266 6.69727H2.17969V0.499023H0.310547V16H2.09375V14.1094H2.13672C2.85645 15.3984 4.13477 16.1934 5.76758 16.1934ZM5.40234 6.27832C7.37891 6.27832 8.60352 7.87891 8.60352 10.4141C8.60352 12.9707 7.37891 14.5498 5.40234 14.5498C3.51172 14.5498 2.16895 12.9062 2.16895 10.4141C2.16895 7.93262 3.51172 6.27832 5.40234 6.27832ZM19.8291 12.7988C19.5176 13.8516 18.4756 14.5713 17.0576 14.5713C15.0488 14.5713 13.792 13.1641 13.792 11.0264V10.9189H21.8057V10.21C21.8057 6.82617 19.9473 4.63477 16.9287 4.63477C13.8457 4.63477 11.8691 6.9873 11.8691 10.457C11.8691 13.9697 13.8135 16.1934 17.0146 16.1934C19.4531 16.1934 21.3438 14.7539 21.666 12.7988H19.8291ZM16.8965 6.25684C18.6582 6.25684 19.8291 7.58887 19.8721 9.45801H13.8027C13.9209 7.59961 15.1455 6.25684 16.8965 6.25684ZM24.2979 2.13184V4.82812H22.6328V6.36426H24.2979V13.0996C24.2979 15.248 25.0928 16.0859 27.1445 16.0859C27.585 16.0859 28.1006 16.0537 28.3262 16V14.4316C28.1973 14.4531 27.7676 14.4854 27.5527 14.4854C26.5967 14.4854 26.167 14.0234 26.167 13.0029V6.36426H28.3369V4.82812H26.167V2.13184H24.2979ZM54.3008 4.82812H52.4531L50.2188 13.916H50.1758L47.6406 4.82812H45.8359L43.3115 13.916H43.2686L41.0342 4.82812H39.1758L42.3018 16H44.2031L46.7168 7.35254H46.7598L49.2842 16H51.1855L54.3008 4.82812ZM58.8877 16.1934C60.3916 16.1934 61.8096 15.3555 62.4756 14.0771H62.5186V16H64.291V8.27637C64.291 6.05273 62.6367 4.63477 60.0156 4.63477C57.373 4.63477 55.7188 6.11719 55.5898 8.05078H57.3945C57.6309 6.95508 58.5332 6.27832 59.9727 6.27832C61.5195 6.27832 62.4219 7.09473 62.4219 8.45898V9.39355L59.2207 9.57617C56.6426 9.72656 55.1709 10.9297 55.1709 12.8418C55.1709 14.8506 56.6641 16.1934 58.8877 16.1934ZM59.3066 14.6035C57.9639 14.6035 57.0723 13.9053 57.0723 12.8418C57.0723 11.7891 57.9316 11.123 59.4355 11.0264L62.4219 10.8438V11.7568C62.4219 13.3682 61.0684 14.6035 59.3066 14.6035ZM67.5996 20.1787C69.6191 20.1787 70.543 19.3945 71.499 16.7842L75.8926 4.82812H73.9268L70.833 14.1309H70.8008L67.707 4.82812H65.709L69.834 16.0107L69.5762 16.7949C69.1465 18.0947 68.5664 18.5996 67.5244 18.5996C67.2881 18.5996 66.998 18.5889 66.7939 18.5459V20.1143C66.998 20.1572 67.374 20.1787 67.5996 20.1787Z" fill="#2A46A6"/>
<path d="M34.3311 16H36.2002V0.499023H34.3096L30.1846 3.46387V5.4082L34.2881 2.55078H34.3311V16Z" fill="#FEAC0E"/>
</svg>
